# This file uses meters as units for non-parametric coordinates.

mtllib Floral white fence.mtl
g default
v 0.000000 0.000000 0.000000
v 3.093031 0.000000 0.000000
v 0.000000 36.140038 0.000000
v 3.093031 36.140038 0.000000
v 0.000000 36.140038 -11.825687
v 3.093031 36.140038 -11.825687
v 0.000000 0.000000 -11.825687
v 3.093031 0.000000 -11.825687
v 0.000000 42.267723 -5.912842
v 0.000000 0.000000 -5.912842
v 3.093031 0.000000 -5.912842
v 3.093031 42.267723 -5.912842
v 3.093031 36.140045 -5.912842
v 0.000000 36.140045 -5.912842
vt 0.577164 0.825082
vt 0.638867 0.825082
vt 0.638867 0.889027
vt 0.577164 0.447944
vt 0.638867 0.447944
vt 0.700570 0.825082
vt 0.700570 0.447944
vt 0.386602 0.889027
vt 0.386602 0.825082
vt 0.448305 0.825082
vt 0.324899 0.825082
vt 0.386602 0.447944
vt 0.448305 0.447944
vt 0.324899 0.447944
vt 0.556982 0.904834
vt 0.589260 0.904834
vt 0.589260 0.966537
vt 0.556982 0.966537
vt 0.556982 0.843130
vt 0.589260 0.843130
vt 0.854655 0.417751
vt 0.886932 0.417747
vt 0.886990 0.794884
vt 0.854713 0.794889
vt 0.887003 0.883745
vt 0.854726 0.883750
vt 0.960620 0.095744
vt 0.992897 0.095740
vt 0.992955 0.472877
vt 0.960677 0.472882
vt 0.960606 0.006884
vt 0.992883 0.006879
vn 0.000000 0.000000 1.000000
vn 0.000000 0.000000 1.000000
vn 0.000000 0.000000 1.000000
vn 0.000000 0.000000 1.000000
vn 0.000000 0.694379 0.719609
vn 0.000000 0.694379 0.719609
vn 0.000000 0.694379 0.719609
vn 0.000000 0.694379 0.719609
vn 0.000000 0.000000 -1.000000
vn 0.000000 0.000000 -1.000000
vn 0.000000 0.000000 -1.000000
vn 0.000000 0.000000 -1.000000
vn 0.000000 -1.000000 0.000000
vn 0.000000 -1.000000 0.000000
vn 0.000000 -1.000000 0.000000
vn 0.000000 -1.000000 0.000000
vn 1.000000 0.000000 0.000000
vn 1.000000 0.000000 0.000000
vn 1.000000 0.000000 0.000000
vn -1.000000 0.000000 0.000000
vn -1.000000 0.000000 0.000000
vn -1.000000 0.000000 0.000000
vn -1.000000 0.000000 0.000000
vn 0.000000 -1.000000 0.000000
vn 0.000000 -1.000000 0.000000
vn 1.000000 0.000000 0.000000
vn 0.000000 0.694379 -0.719609
vn 0.000000 0.694379 -0.719609
vn 0.000000 0.694379 -0.719609
vn 0.000000 0.694379 -0.719609
vn 1.000000 0.000000 0.000000
vn 1.000000 0.000000 0.000000
vn 1.000000 0.000000 0.000000
vn -1.000000 0.000000 0.000000
vn -1.000000 0.000000 0.000000
vn -1.000000 0.000000 0.000000
s off
g pCube15 Recinzione
usemtl initialShadingGroup
f 1/21/1 2/22/2 4/23/3 3/24/4
f 3/24/5 4/23/6 12/25/7 9/26/8
f 5/27/9 6/28/10 8/29/11 7/30/12
s 1
f 10/15/13 11/16/14 2/17/15 1/18/16
s 2
f 4/1/17 13/2/18 12/3/19
s 3
f 9/8/20 14/9/21 3/10/22
f 5/11/23 14/9/21 9/8/20
s 1
f 7/19/24 8/20/25 11/16/14 10/15/13
s 2
f 12/3/19 13/2/18 6/6/26
s off
f 9/31/27 12/32/28 6/28/29 5/27/30
s 2
f 2/4/31 11/5/32 13/2/18 4/1/17
f 6/6/26 13/2/18 11/5/32 8/7/33
s 3
f 7/14/34 10/12/35 14/9/21 5/11/23
f 3/10/22 14/9/21 10/12/35 1/13/36
g default
v 0.000000 0.000000 -12.066174
v 3.093031 0.000000 -12.066174
v 0.000000 36.140038 -12.066174
v 3.093031 36.140038 -12.066174
v 0.000000 36.140038 -23.891861
v 3.093031 36.140038 -23.891861
v 0.000000 0.000000 -23.891861
v 3.093031 0.000000 -23.891861
v 0.000000 42.267723 -17.979015
v 0.000000 0.000000 -17.979015
v 3.093031 0.000000 -17.979015
v 3.093031 42.267723 -17.979015
v 3.093031 36.140045 -17.979015
v 0.000000 36.140045 -17.979015
vt 0.259310 0.384016
vt 0.321013 0.384016
vt 0.321013 0.447961
vt 0.259310 0.006879
vt 0.321013 0.006879
vt 0.382716 0.384016
vt 0.382716 0.006879
vt 0.573278 0.447961
vt 0.573278 0.384016
vt 0.634981 0.384016
vt 0.511575 0.384016
vt 0.573278 0.006879
vt 0.634981 0.006879
vt 0.511575 0.006879
vt 0.819338 0.894376
vt 0.851615 0.894376
vt 0.851615 0.956080
vt 0.819338 0.956080
vt 0.819338 0.832673
vt 0.851615 0.832673
vt 0.007045 0.420662
vt 0.039323 0.420657
vt 0.039380 0.797795
vt 0.007103 0.797800
vt 0.039394 0.886656
vt 0.007117 0.886661
vt 0.889985 0.095744
vt 0.922263 0.095740
vt 0.922320 0.472877
vt 0.890043 0.472882
vt 0.889972 0.006884
vt 0.922249 0.006879
vn 0.000000 0.000000 1.000000
vn 0.000000 0.000000 1.000000
vn 0.000000 0.000000 1.000000
vn 0.000000 0.000000 1.000000
vn 0.000000 0.694379 0.719609
vn 0.000000 0.694379 0.719609
vn 0.000000 0.694379 0.719609
vn 0.000000 0.694379 0.719609
vn 0.000000 0.000000 -1.000000
vn 0.000000 0.000000 -1.000000
vn 0.000000 0.000000 -1.000000
vn 0.000000 0.000000 -1.000000
vn 0.000000 -1.000000 0.000000
vn 0.000000 -1.000000 0.000000
vn 0.000000 -1.000000 0.000000
vn 0.000000 -1.000000 0.000000
vn 1.000000 0.000000 0.000000
vn 1.000000 0.000000 0.000000
vn 1.000000 0.000000 0.000000
vn -1.000000 0.000000 0.000000
vn -1.000000 0.000000 0.000000
vn -1.000000 0.000000 0.000000
vn -1.000000 0.000000 0.000000
vn 0.000000 -1.000000 0.000000
vn 0.000000 -1.000000 0.000000
vn 1.000000 0.000000 0.000000
vn 0.000000 0.694379 -0.719609
vn 0.000000 0.694379 -0.719609
vn 0.000000 0.694379 -0.719609
vn 0.000000 0.694379 -0.719609
vn 1.000000 0.000000 0.000000
vn 1.000000 0.000000 0.000000
vn 1.000000 0.000000 0.000000
vn -1.000000 0.000000 0.000000
vn -1.000000 0.000000 0.000000
vn -1.000000 0.000000 0.000000
s off
g Recinzione pCube16
usemtl initialShadingGroup
f 15/53/37 16/54/38 18/55/39 17/56/40
f 17/56/41 18/55/42 26/57/43 23/58/44
f 19/59/45 20/60/46 22/61/47 21/62/48
s 1
f 24/47/49 25/48/50 16/49/51 15/50/52
s 2
f 18/33/53 27/34/54 26/35/55
s 3
f 23/40/56 28/41/57 17/42/58
f 19/43/59 28/41/57 23/40/56
s 1
f 21/51/60 22/52/61 25/48/50 24/47/49
s 2
f 26/35/55 27/34/54 20/38/62
s off
f 23/63/63 26/64/64 20/60/65 19/59/66
s 2
f 16/36/67 25/37/68 27/34/54 18/33/53
f 20/38/62 27/34/54 25/37/68 22/39/69
s 3
f 21/46/70 24/44/71 28/41/57 19/43/59
f 17/42/58 28/41/57 24/44/71 15/45/72
g default
v 0.000000 0.000000 -24.157604
v 3.093031 0.000000 -24.157604
v 0.000000 36.140038 -24.157604
v 3.093031 36.140038 -24.157604
v 0.000000 36.140038 -35.983292
v 3.093031 36.140038 -35.983292
v 0.000000 0.000000 -35.983292
v 3.093031 0.000000 -35.983292
v 0.000000 42.267723 -30.070446
v 0.000000 0.000000 -30.070446
v 3.093031 0.000000 -30.070446
v 3.093031 42.267723 -30.070446
v 3.093031 36.140045 -30.070446
v 0.000000 36.140045 -30.070446
vt 0.385442 0.384016
vt 0.447146 0.384016
vt 0.447146 0.447961
vt 0.385442 0.006879
vt 0.447146 0.006879
vt 0.508849 0.384016
vt 0.508849 0.006879
vt 0.699410 0.447961
vt 0.699410 0.384016
vt 0.761114 0.384016
vt 0.637707 0.384016
vt 0.699410 0.006879
vt 0.761114 0.006879
vt 0.637707 0.006879
vt 0.683115 0.904834
vt 0.715392 0.904834
vt 0.715392 0.966537
vt 0.683115 0.966537
vt 0.683115 0.843130
vt 0.715392 0.843130
vt 0.148314 0.436348
vt 0.180591 0.436343
vt 0.180649 0.813481
vt 0.148371 0.813486
vt 0.180662 0.902342
vt 0.148385 0.902347
vt 0.889985 0.561744
vt 0.922263 0.561739
vt 0.922320 0.938877
vt 0.890043 0.938882
vt 0.889972 0.472883
vt 0.922249 0.472878
vn 0.000000 0.000000 1.000000
vn 0.000000 0.000000 1.000000
vn 0.000000 0.000000 1.000000
vn 0.000000 0.000000 1.000000
vn 0.000000 0.694379 0.719609
vn 0.000000 0.694379 0.719609
vn 0.000000 0.694379 0.719609
vn 0.000000 0.694379 0.719609
vn 0.000000 0.000000 -1.000000
vn 0.000000 0.000000 -1.000000
vn 0.000000 0.000000 -1.000000
vn 0.000000 0.000000 -1.000000
vn 0.000000 -1.000000 0.000000
vn 0.000000 -1.000000 0.000000
vn 0.000000 -1.000000 0.000000
vn 0.000000 -1.000000 0.000000
vn 1.000000 0.000000 0.000000
vn 1.000000 0.000000 0.000000
vn 1.000000 0.000000 0.000000
vn -1.000000 0.000000 0.000000
vn -1.000000 0.000000 0.000000
vn -1.000000 0.000000 0.000000
vn -1.000000 0.000000 0.000000
vn 0.000000 -1.000000 0.000000
vn 0.000000 -1.000000 0.000000
vn 1.000000 0.000000 0.000000
vn 0.000000 0.694379 -0.719609
vn 0.000000 0.694379 -0.719609
vn 0.000000 0.694379 -0.719609
vn 0.000000 0.694379 -0.719609
vn 1.000000 0.000000 0.000000
vn 1.000000 0.000000 0.000000
vn 1.000000 0.000000 0.000000
vn -1.000000 0.000000 0.000000
vn -1.000000 0.000000 0.000000
vn -1.000000 0.000000 0.000000
s off
g Recinzione pCube17
usemtl initialShadingGroup
f 29/85/73 30/86/74 32/87/75 31/88/76
f 31/88/77 32/87/78 40/89/79 37/90/80
f 33/91/81 34/92/82 36/93/83 35/94/84
s 1
f 38/79/85 39/80/86 30/81/87 29/82/88
s 2
f 32/65/89 41/66/90 40/67/91
s 3
f 37/72/92 42/73/93 31/74/94
f 33/75/95 42/73/93 37/72/92
s 1
f 35/83/96 36/84/97 39/80/86 38/79/85
s 2
f 40/67/91 41/66/90 34/70/98
s off
f 37/95/99 40/96/100 34/92/101 33/91/102
s 2
f 30/68/103 39/69/104 41/66/90 32/65/89
f 34/70/98 41/66/90 39/69/104 36/71/105
s 3
f 35/78/106 38/76/107 42/73/93 33/75/95
f 31/74/94 42/73/93 38/76/107 29/77/108
g default
v 0.000000 0.000000 -48.304127
v 3.093031 0.000000 -48.304127
v 0.000000 36.140038 -48.304127
v 3.093031 36.140038 -48.304127
v 0.000000 36.140038 -60.129814
v 3.093031 36.140038 -60.129814
v 0.000000 0.000000 -60.129814
v 3.093031 0.000000 -60.129814
v 0.000000 42.267723 -54.216969
v 0.000000 0.000000 -54.216969
v 3.093031 0.000000 -54.216969
v 3.093031 42.267723 -54.216969
v 3.093031 36.140045 -54.216969
v 0.000000 36.140045 -54.216969
vt 0.007045 0.384016
vt 0.068749 0.384016
vt 0.068749 0.447961
vt 0.007045 0.006879
vt 0.068749 0.006879
vt 0.130452 0.384016
vt 0.130452 0.006879
vt 0.825543 0.447961
vt 0.825543 0.384016
vt 0.887246 0.384016
vt 0.763839 0.384016
vt 0.825543 0.006879
vt 0.887246 0.006879
vt 0.763839 0.006879
vt 0.430850 0.904834
vt 0.463127 0.904834
vt 0.463127 0.966537
vt 0.430850 0.966537
vt 0.430850 0.843130
vt 0.463127 0.843130
vt 0.077679 0.438666
vt 0.109957 0.438661
vt 0.110015 0.815799
vt 0.077737 0.815804
vt 0.110028 0.904660
vt 0.077751 0.904665
vt 0.925303 0.095744
vt 0.957580 0.095740
vt 0.957638 0.472877
vt 0.925360 0.472882
vt 0.925289 0.006884
vt 0.957566 0.006879
vn 0.000000 0.000000 1.000000
vn 0.000000 0.000000 1.000000
vn 0.000000 0.000000 1.000000
vn 0.000000 0.000000 1.000000
vn 0.000000 0.694379 0.719609
vn 0.000000 0.694379 0.719609
vn 0.000000 0.694379 0.719609
vn 0.000000 0.694379 0.719609
vn 0.000000 0.000000 -1.000000
vn 0.000000 0.000000 -1.000000
vn 0.000000 0.000000 -1.000000
vn 0.000000 0.000000 -1.000000
vn 0.000000 -1.000000 0.000000
vn 0.000000 -1.000000 0.000000
vn 0.000000 -1.000000 0.000000
vn 0.000000 -1.000000 0.000000
vn 1.000000 0.000000 0.000000
vn 1.000000 0.000000 0.000000
vn 1.000000 0.000000 0.000000
vn -1.000000 0.000000 0.000000
vn -1.000000 0.000000 0.000000
vn -1.000000 0.000000 0.000000
vn -1.000000 0.000000 0.000000
vn 0.000000 -1.000000 0.000000
vn 0.000000 -1.000000 0.000000
vn 1.000000 0.000000 0.000000
vn 0.000000 0.694379 -0.719609
vn 0.000000 0.694379 -0.719609
vn 0.000000 0.694379 -0.719609
vn 0.000000 0.694379 -0.719609
vn 1.000000 0.000000 0.000000
vn 1.000000 0.000000 0.000000
vn 1.000000 0.000000 0.000000
vn -1.000000 0.000000 0.000000
vn -1.000000 0.000000 0.000000
vn -1.000000 0.000000 0.000000
s off
g Recinzione pCube19
usemtl initialShadingGroup
f 43/117/109 44/118/110 46/119/111 45/120/112
f 45/120/113 46/119/114 54/121/115 51/122/116
f 47/123/117 48/124/118 50/125/119 49/126/120
s 1
f 52/111/121 53/112/122 44/113/123 43/114/124
s 2
f 46/97/125 55/98/126 54/99/127
s 3
f 51/104/128 56/105/129 45/106/130
f 47/107/131 56/105/129 51/104/128
s 1
f 49/115/132 50/116/133 53/112/122 52/111/121
s 2
f 54/99/127 55/98/126 48/102/134
s off
f 51/127/135 54/128/136 48/124/137 47/123/138
s 2
f 44/100/139 53/101/140 55/98/126 46/97/125
f 48/102/134 55/98/126 53/101/140 50/103/141
s 3
f 49/110/142 52/108/143 56/105/129 47/107/131
f 45/106/130 56/105/129 52/108/143 43/109/144
g default
v 0.000000 0.000000 -60.370296
v 3.093031 0.000000 -60.370296
v 0.000000 36.140038 -60.370296
v 3.093031 36.140038 -60.370296
v 0.000000 36.140038 -72.195984
v 3.093031 36.140038 -72.195984
v 0.000000 0.000000 -72.195984
v 3.093031 0.000000 -72.195984
v 0.000000 42.267723 -66.283142
v 0.000000 0.000000 -66.283142
v 3.093031 0.000000 -66.283142
v 3.093031 42.267723 -66.283142
v 3.093031 36.140045 -66.283142
v 0.000000 36.140045 -66.283142
vt 0.451031 0.825082
vt 0.512735 0.825082
vt 0.512735 0.889027
vt 0.451031 0.447944
vt 0.512735 0.447944
vt 0.574438 0.825082
vt 0.574438 0.447944
vt 0.260470 0.889027
vt 0.260470 0.825082
vt 0.322173 0.825082
vt 0.198767 0.825082
vt 0.260470 0.447944
vt 0.322173 0.447944
vt 0.198767 0.447944
vt 0.304718 0.904834
vt 0.336995 0.904834
vt 0.336995 0.966537
vt 0.304718 0.966537
vt 0.304718 0.843130
vt 0.336995 0.843130
vt 0.960606 0.472883
vt 0.992883 0.472878
vt 0.992941 0.850016
vt 0.960664 0.850021
vt 0.992955 0.938877
vt 0.960677 0.938882
vt 0.113010 0.490927
vt 0.145287 0.490922
vt 0.145345 0.868059
vt 0.113068 0.868064
vt 0.112997 0.402066
vt 0.145274 0.402061
vn 0.000000 0.000000 1.000000
vn 0.000000 0.000000 1.000000
vn 0.000000 0.000000 1.000000
vn 0.000000 0.000000 1.000000
vn 0.000000 0.694379 0.719609
vn 0.000000 0.694379 0.719609
vn 0.000000 0.694379 0.719609
vn 0.000000 0.694379 0.719609
vn 0.000000 0.000000 -1.000000
vn 0.000000 0.000000 -1.000000
vn 0.000000 0.000000 -1.000000
vn 0.000000 0.000000 -1.000000
vn 0.000000 -1.000000 0.000000
vn 0.000000 -1.000000 0.000000
vn 0.000000 -1.000000 0.000000
vn 0.000000 -1.000000 0.000000
vn 1.000000 0.000000 0.000000
vn 1.000000 0.000000 0.000000
vn 1.000000 0.000000 0.000000
vn -1.000000 0.000000 0.000000
vn -1.000000 0.000000 0.000000
vn -1.000000 0.000000 0.000000
vn -1.000000 0.000000 0.000000
vn 0.000000 -1.000000 0.000000
vn 0.000000 -1.000000 0.000000
vn 1.000000 0.000000 0.000000
vn 0.000000 0.694379 -0.719609
vn 0.000000 0.694379 -0.719609
vn 0.000000 0.694379 -0.719609
vn 0.000000 0.694379 -0.719609
vn 1.000000 0.000000 0.000000
vn 1.000000 0.000000 0.000000
vn 1.000000 0.000000 0.000000
vn -1.000000 0.000000 0.000000
vn -1.000000 0.000000 0.000000
vn -1.000000 0.000000 0.000000
s off
g Recinzione pCube20
usemtl initialShadingGroup
f 57/149/145 58/150/146 60/151/147 59/152/148
f 59/152/149 60/151/150 68/153/151 65/154/152
f 61/155/153 62/156/154 64/157/155 63/158/156
s 1
f 66/143/157 67/144/158 58/145/159 57/146/160
s 2
f 60/129/161 69/130/162 68/131/163
s 3
f 65/136/164 70/137/165 59/138/166
f 61/139/167 70/137/165 65/136/164
s 1
f 63/147/168 64/148/169 67/144/158 66/143/157
s 2
f 68/131/163 69/130/162 62/134/170
s off
f 65/159/171 68/160/172 62/156/173 61/155/174
s 2
f 58/132/175 67/133/176 69/130/162 60/129/161
f 62/134/170 69/130/162 67/133/176 64/135/177
s 3
f 63/142/178 66/140/179 70/137/165 61/139/167
f 59/138/166 70/137/165 66/140/179 57/141/180
g default
v 0.000000 0.000000 -36.223782
v 3.093031 0.000000 -36.223782
v 0.000000 36.140038 -36.223782
v 3.093031 36.140038 -36.223782
v 0.000000 36.140038 -48.049469
v 3.093031 36.140038 -48.049469
v 0.000000 0.000000 -48.049469
v 3.093031 0.000000 -48.049469
v 0.000000 42.267723 -42.136623
v 0.000000 0.000000 -42.136623
v 3.093031 0.000000 -42.136623
v 3.093031 42.267723 -42.136623
v 3.093031 36.140045 -42.136623
v 0.000000 36.140045 -42.136623
vt 0.133178 0.384016
vt 0.194881 0.384016
vt 0.194881 0.447961
vt 0.133178 0.006879
vt 0.194881 0.006879
vt 0.256584 0.384016
vt 0.256584 0.006879
vt 0.764999 0.889027
vt 0.764999 0.825082
vt 0.826702 0.825082
vt 0.703296 0.825082
vt 0.764999 0.447944
vt 0.826702 0.447944
vt 0.703296 0.447944
vt 0.183631 0.907740
vt 0.215908 0.907740
vt 0.215908 0.969444
vt 0.183631 0.969444
vt 0.183631 0.846037
vt 0.215908 0.846037
vt 0.042362 0.447949
vt 0.074640 0.447944
vt 0.074697 0.825082
vt 0.042420 0.825086
vt 0.074711 0.913942
vt 0.042434 0.913947
vt 0.925303 0.561744
vt 0.957580 0.561739
vt 0.957638 0.938877
vt 0.925360 0.938882
vt 0.925289 0.472883
vt 0.957566 0.472878
vn 0.000000 0.000000 1.000000
vn 0.000000 0.000000 1.000000
vn 0.000000 0.000000 1.000000
vn 0.000000 0.000000 1.000000
vn 0.000000 0.694379 0.719609
vn 0.000000 0.694379 0.719609
vn 0.000000 0.694379 0.719609
vn 0.000000 0.694379 0.719609
vn 0.000000 0.000000 -1.000000
vn 0.000000 0.000000 -1.000000
vn 0.000000 0.000000 -1.000000
vn 0.000000 0.000000 -1.000000
vn 0.000000 -1.000000 0.000000
vn 0.000000 -1.000000 0.000000
vn 0.000000 -1.000000 0.000000
vn 0.000000 -1.000000 0.000000
vn 1.000000 0.000000 0.000000
vn 1.000000 0.000000 0.000000
vn 1.000000 0.000000 0.000000
vn -1.000000 0.000000 0.000000
vn -1.000000 0.000000 0.000000
vn -1.000000 0.000000 0.000000
vn -1.000000 0.000000 0.000000
vn 0.000000 -1.000000 0.000000
vn 0.000000 -1.000000 0.000000
vn 1.000000 0.000000 0.000000
vn 0.000000 0.694379 -0.719609
vn 0.000000 0.694379 -0.719609
vn 0.000000 0.694379 -0.719609
vn 0.000000 0.694379 -0.719609
vn 1.000000 0.000000 0.000000
vn 1.000000 0.000000 0.000000
vn 1.000000 0.000000 0.000000
vn -1.000000 0.000000 0.000000
vn -1.000000 0.000000 0.000000
vn -1.000000 0.000000 0.000000
s off
g Recinzione pCube18
usemtl initialShadingGroup
f 71/181/181 72/182/182 74/183/183 73/184/184
f 73/184/185 74/183/186 82/185/187 79/186/188
f 75/187/189 76/188/190 78/189/191 77/190/192
s 1
f 80/175/193 81/176/194 72/177/195 71/178/196
s 2
f 74/161/197 83/162/198 82/163/199
s 3
f 79/168/200 84/169/201 73/170/202
f 75/171/203 84/169/201 79/168/200
s 1
f 77/179/204 78/180/205 81/176/194 80/175/193
s 2
f 82/163/199 83/162/198 76/166/206
s off
f 79/191/207 82/192/208 76/188/209 75/187/210
s 2
f 72/164/211 81/165/212 83/162/198 74/161/197
f 76/166/206 83/162/198 81/165/212 78/167/213
s 3
f 77/174/214 80/172/215 84/169/201 75/171/203
f 73/170/202 84/169/201 80/172/215 71/173/216
