# This file uses meters as units for non-parametric coordinates.

mtllib Vaso nascondino.mtl
g default
v -27.531631 24.519619 -25.104952
v -27.531631 49.176525 -25.104954
v -27.531631 49.176525 -0.000002
v -24.770088 49.176525 -2.761545
v -2.761544 24.537731 -12.552476
v -0.000000 49.176525 -0.000006
v -2.761544 49.176525 -2.761549
v 0.000000 24.519619 -25.104948
v 0.000000 24.519619 -12.552474
v -2.761544 49.176525 -22.343409
v -24.770088 49.176525 -22.343409
v -24.770088 24.519619 -22.343409
v -2.761544 24.519619 -22.343405
v -2.761544 31.435989 -12.552478
v -2.761544 36.802887 -7.185575
v 0.000000 36.802887 -7.185575
v 0.000000 31.435989 -12.552479
v 0.000000 42.169785 -12.552479
v -2.761544 42.169785 -12.552478
v 0.000000 49.176525 -25.104954
v 0.000000 49.176525 -12.552480
v -2.761544 49.176525 -12.552479
v -2.761544 36.802887 -17.919378
v 0.000000 36.802887 -17.919378
v -2.761544 24.519619 -2.761545
v 0.000000 24.519619 0.000000
v -27.531631 24.519619 0.000000
v -24.770088 24.519619 -2.761545
v -27.531631 -0.082962 0.000000
v -27.531631 -0.082962 -25.104952
v -24.770088 -0.082962 -22.343409
v 0.000000 -0.082962 -25.104948
v -2.761544 -0.082962 -22.343405
v -2.761544 -0.082962 -2.761545
v -24.770088 -0.082962 -2.761545
v -2.761544 17.657578 -12.552476
v -2.761544 12.290676 -17.919378
v 0.000000 12.290676 -17.919378
v 0.000000 17.657576 -12.552475
v 0.000000 6.923777 -12.552475
v -2.761544 6.923777 -12.552476
v -0.000000 -0.082962 0.000000
v 0.000000 -0.082962 -12.552474
v -2.761544 -0.082962 -12.552475
v -2.761544 12.290676 -7.185575
v 0.000000 12.290676 -7.185575
v 0.000000 12.290685 -25.104948
v -27.531631 12.290685 -25.104952
v -27.531631 12.290685 0.000000
v 0.000000 12.290685 0.000000
v 0.000000 36.802876 -25.104950
v -27.531631 36.802876 -25.104952
v -27.531631 36.802876 0.000000
v 0.000000 36.802876 -0.000004
vt 0.455383 0.400691
vt 0.455383 0.301816
vt 0.655991 0.301816
vt 0.655991 0.400691
vt 0.455383 0.203664
vt 0.655991 0.203664
vt 0.455383 0.105945
vt 0.655991 0.105945
vt 0.455383 0.007071
vt 0.655991 0.007071
vt 0.870162 0.203809
vt 0.870162 0.258931
vt 0.827276 0.301817
vt 0.870162 0.344702
vt 0.870162 0.400691
vt 0.791925 0.400691
vt 0.791925 0.203664
vt 0.948399 0.400691
vt 0.913048 0.301817
vt 0.948399 0.203664
vt 0.791925 0.007071
vt 0.870162 0.007071
vt 0.870162 0.063060
vt 0.827276 0.105945
vt 0.870162 0.148831
vt 0.913048 0.105945
vt 0.948399 0.007071
vt 0.106964 0.794312
vt 0.106964 0.738323
vt 0.149850 0.695437
vt 0.207268 0.695437
vt 0.207268 0.794312
vt 0.006661 0.794312
vt 0.006661 0.695437
vt 0.064079 0.695437
vt 0.106964 0.652552
vt 0.106964 0.597284
vt 0.207268 0.597284
vt 0.006661 0.597284
vt 0.149850 0.499566
vt 0.207268 0.499566
vt 0.106964 0.542452
vt 0.006661 0.499566
vt 0.064079 0.499566
vt 0.207268 0.400691
vt 0.106964 0.456680
vt 0.106964 0.400691
vt 0.006661 0.400691
vt 0.791346 0.597284
vt 0.791346 0.794312
vt 0.634872 0.794312
vt 0.634872 0.597284
vt 0.634872 0.400691
vt 0.791346 0.400691
vt 0.992533 0.620690
vt 0.791925 0.620690
vt 0.813992 0.598623
vt 0.970466 0.598623
vt 0.791925 0.400691
vt 0.813992 0.422758
vt 0.992533 0.400691
vt 0.970466 0.422758
vt 0.892229 0.400691
vt 0.892229 0.422758
vt 0.631248 0.794312
vt 0.455383 0.794312
vt 0.455383 0.597284
vt 0.631248 0.597284
vt 0.455383 0.400691
vt 0.631248 0.400691
vt 0.226659 0.105945
vt 0.006661 0.105945
vt 0.006661 0.007071
vt 0.226659 0.007071
vt 0.226659 0.204098
vt 0.006661 0.204098
vt 0.226659 0.301816
vt 0.006661 0.301816
vt 0.226659 0.400691
vt 0.006661 0.400691
vt 0.231022 0.301816
vt 0.451020 0.301816
vt 0.451020 0.400691
vt 0.231022 0.400691
vt 0.231022 0.203664
vt 0.451020 0.203664
vt 0.231022 0.105945
vt 0.451020 0.105945
vt 0.231022 0.007071
vt 0.451020 0.007071
vt 0.208586 0.400691
vt 0.384451 0.400691
vt 0.384451 0.597719
vt 0.208586 0.597719
vt 0.384451 0.794312
vt 0.208586 0.794312
vt 0.735430 0.127506
vt 0.712074 0.071534
vt 0.732439 0.063036
vt 0.755795 0.119008
vt 0.709084 0.007064
vt 0.688719 0.015562
vt 0.758785 0.183478
vt 0.779150 0.174980
vt 0.787024 0.007068
vt 0.790851 0.067597
vt 0.768828 0.068989
vt 0.765002 0.008460
vt 0.704019 0.127506
vt 0.680664 0.071534
vt 0.701029 0.063036
vt 0.724384 0.119008
vt 0.677673 0.007064
vt 0.657308 0.015562
vt 0.727374 0.183478
vt 0.747739 0.174980
vt 0.760101 0.007068
vt 0.763928 0.067597
vt 0.741905 0.068989
vt 0.738078 0.008460
vn -1.000000 0.000000 0.000000
vn -1.000000 0.000000 0.000000
vn -1.000000 0.000000 0.000000
vn -1.000000 0.000000 0.000000
vn 0.000000 1.000000 -0.000000
vn 0.000000 1.000000 0.000000
vn 0.000000 1.000000 0.000000
vn 0.000000 1.000000 -0.000000
vn 0.000000 1.000000 0.000000
vn 0.000000 1.000000 0.000000
vn 0.000000 0.000000 1.000000
vn 0.000000 0.000000 1.000000
vn 0.000000 0.000000 1.000000
vn 0.000000 0.000000 1.000000
vn -0.000000 0.707107 -0.707106
vn -0.000000 0.707107 -0.707106
vn -0.000000 0.707107 -0.707106
vn -0.000000 0.707107 -0.707106
vn -0.000000 -0.707107 -0.707107
vn -0.000000 -0.707107 -0.707107
vn -0.000000 -0.707107 -0.707107
vn -0.000000 -0.707107 -0.707107
vn 0.000000 -0.000000 -1.000000
vn 0.000000 -0.000000 -1.000000
vn 0.000000 -0.000000 -1.000000
vn 0.000000 -0.000000 -1.000000
vn 0.000000 1.000000 -0.000000
vn 0.000000 1.000000 -0.000000
vn 0.000000 1.000000 -0.000001
vn 0.000000 1.000000 -0.000001
vn 0.000000 0.707107 0.707107
vn 0.000000 0.707107 0.707107
vn 0.000000 0.707107 0.707107
vn 0.000000 0.707107 0.707107
vn 0.000000 -0.707107 0.707107
vn 0.000000 -0.707107 0.707107
vn 0.000000 -0.707107 0.707107
vn 0.000000 -0.707107 0.707107
vn -1.000000 0.000000 -0.000000
vn -1.000000 0.000000 -0.000000
vn -1.000000 -0.000000 -0.000000
vn -1.000000 0.000000 -0.000000
vn -1.000000 0.000000 -0.000000
vn -1.000000 -0.000000 -0.000000
vn -1.000000 -0.000000 -0.000000
vn 1.000000 0.000000 0.000000
vn 1.000000 0.000000 0.000000
vn 1.000000 0.000000 -0.000000
vn 1.000000 0.000000 0.000000
vn 1.000000 0.000000 -0.000000
vn -1.000000 0.000000 0.000000
vn -1.000000 0.000000 0.000000
vn -1.000000 0.000000 0.000000
vn 1.000000 0.000000 0.000000
vn 1.000000 -0.000000 0.000000
vn 1.000000 0.000000 0.000000
vn 0.000000 0.000000 1.000000
vn 0.000000 0.000000 1.000000
vn 0.000000 0.000000 1.000000
vn 0.000000 0.000000 1.000000
vn 1.000000 0.000000 0.000000
vn 1.000000 0.000000 0.000000
vn 1.000000 0.000000 0.000000
vn 1.000000 0.000000 0.000000
vn -0.000000 -0.000000 -1.000000
vn -0.000000 -0.000000 -1.000000
vn -0.000000 -0.000000 -1.000000
vn -0.000000 -0.000000 -1.000000
vn -1.000000 0.000000 0.000000
vn -1.000000 0.000000 0.000000
vn -1.000000 0.000000 0.000000
vn -1.000000 0.000000 0.000000
vn 0.000000 0.000000 -1.000000
vn 0.000000 0.000000 -1.000000
vn 0.000000 0.000000 -1.000000
vn 0.000000 0.000000 -1.000000
vn -0.000001 -0.707107 0.707107
vn -0.000001 -0.707107 0.707107
vn -0.000001 -0.707107 0.707107
vn -0.000001 -0.707107 0.707107
vn -0.000000 0.707107 0.707107
vn -0.000000 0.707107 0.707107
vn -0.000000 0.707107 0.707107
vn -0.000000 0.707107 0.707107
vn 0.000000 0.000000 1.000000
vn 0.000000 0.000000 1.000000
vn 0.000000 0.000000 1.000000
vn 0.000000 0.000000 1.000000
vn 0.000000 -0.707107 -0.707107
vn 0.000000 -0.707107 -0.707107
vn 0.000000 -0.707107 -0.707107
vn 0.000000 -0.707107 -0.707107
vn 0.000000 0.707107 -0.707107
vn 0.000000 0.707107 -0.707107
vn 0.000000 0.707107 -0.707107
vn 0.000000 0.707107 -0.707107
vn -1.000000 0.000000 -0.000000
vn -1.000000 0.000000 -0.000000
vn -1.000000 0.000000 -0.000000
vn -1.000000 0.000000 -0.000000
vn -1.000000 0.000000 -0.000000
vn -1.000000 0.000000 -0.000000
vn -1.000000 0.000000 -0.000000
vn 1.000000 0.000000 0.000000
vn 1.000000 -0.000000 0.000000
vn 1.000000 0.000000 0.000000
vn 1.000000 0.000000 0.000000
vn 1.000000 0.000000 0.000000
vn -1.000000 0.000000 -0.000000
vn -1.000000 0.000000 -0.000000
vn -1.000000 0.000000 -0.000000
vn 1.000000 -0.000000 -0.000000
vn 1.000000 -0.000000 0.000000
vn 1.000000 -0.000000 0.000000
vn 0.000000 0.000000 -1.000000
vn 0.000000 0.000000 -1.000000
vn 0.000000 0.000000 -1.000000
vn 0.000000 0.000000 -1.000000
vn 1.000000 0.000000 0.000000
vn 1.000000 0.000000 0.000000
vn 1.000000 0.000000 0.000000
vn 1.000000 0.000000 0.000000
vn -0.000000 0.000000 1.000000
vn -0.000000 0.000000 1.000000
vn -0.000000 0.000000 1.000000
vn -0.000000 0.000000 1.000000
vn 1.000000 -0.000000 -0.000000
vn 1.000000 -0.000000 0.000000
vn 1.000000 -0.000000 0.000000
vn 0.000000 0.000000 -1.000000
vn 0.000000 0.000000 -1.000000
vn -1.000000 0.000000 0.000000
vn -1.000000 0.000000 0.000000
vn 0.000000 0.000000 1.000000
vn 0.000000 0.000000 1.000000
vn 1.000000 -0.000000 0.000000
vn 1.000000 -0.000000 0.000000
vn 1.000000 -0.000000 0.000000
vn 1.000000 0.000000 0.000000
vn 0.000000 -0.000000 -1.000000
vn 0.000000 -0.000000 -1.000000
vn -1.000000 0.000000 0.000000
vn -1.000000 0.000000 0.000000
vn 0.000000 0.000000 1.000000
vn 0.000000 0.000000 1.000000
vn 1.000000 -0.000000 0.000000
s 1
g Vaso_nascondino
usemtl initialShadingGroup
f 2/1/1 52/2/2 53/3/3 3/4/4
s 2
f 2/55/5 3/56/6 4/57/7 11/58/8
f 3/56/6 6/59/9 7/60/10 4/57/7
s off
f 10/65/11 11/66/12 12/67/13 13/68/14
f 14/97/15 15/98/16 16/99/17 17/100/18
f 18/101/19 16/99/20 15/98/21 19/102/22
s 3
f 51/71/23 52/72/24 2/73/25 20/74/26
s 2
f 6/59/9 21/63/27 22/64/28 7/60/10
f 20/61/29 2/55/5 11/58/8 10/62/30
f 22/64/28 21/63/27 20/61/29 10/62/30
s off
f 23/103/31 14/97/32 17/100/33 24/104/34
f 24/105/35 18/106/36 19/107/37 23/108/38
s 4
f 5/11/39 14/12/40 23/13/41 19/14/42 22/15/43 10/16/44 13/17/45
s 5
f 21/28/46 18/29/47 24/30/48 51/31/49 20/32/50
s 4
f 7/18/51 22/15/43 19/14/42 15/19/52 14/12/40 5/11/39 25/20/53
s 5
f 6/33/54 54/34/55 16/35/56 18/29/47 21/28/46
s 6
f 53/81/57 54/82/58 6/83/59 3/84/60
s off
f 12/49/61 11/50/62 4/51/63 28/52/64
f 4/91/65 7/92/66 25/93/67 28/94/68
s 7
f 48/7/69 49/8/70 27/6/71 1/5/72
s off
f 34/95/73 35/96/74 28/94/75 25/93/76
f 36/109/77 37/110/78 38/111/79 39/112/80
f 40/113/81 38/111/82 37/110/83 41/114/84
s 8
f 26/86/85 27/85/86 49/87/87 50/88/88
s off
f 45/115/89 36/109/90 39/112/91 46/116/92
f 46/117/93 40/118/94 41/119/95 45/120/96
s 9
f 5/11/97 36/25/98 45/26/99 41/23/100 44/22/101 34/27/102 25/20/103
s 10
f 50/43/104 46/44/105 39/42/106 9/37/107 26/39/108
s 9
f 33/21/109 44/22/101 41/23/100 37/24/110 36/25/98 5/11/97 13/17/111
s 10
f 38/40/112 47/41/113 8/38/114 9/37/107 39/42/106
s 11
f 1/76/115 8/75/116 47/77/117 48/78/118
s off
f 12/49/119 28/52/120 35/53/121 31/54/122
f 31/69/123 33/70/124 13/68/125 12/67/126
s 10
f 32/45/127 47/41/113 38/40/112 40/46/128 43/47/129
s 11
f 48/78/118 47/77/117 32/79/130 30/80/131
s 7
f 30/9/132 29/10/133 49/8/70 48/7/69
s 8
f 50/88/88 49/87/87 29/89/134 42/90/135
s 10
f 43/47/129 40/46/128 46/44/105 50/43/104 42/48/136
s 5
f 51/31/49 24/30/48 17/36/137 9/37/138 8/38/139
s 3
f 8/75/140 1/76/141 52/72/24 51/71/23
s 1
f 53/3/3 52/2/2 1/5/142 27/6/143
s 6
f 27/85/144 26/86/145 54/82/58 53/81/57
s 5
f 16/35/56 54/34/55 26/39/146 9/37/138 17/36/137
